<svg viewBox="0 0 1080 1080" fill="none" xmlns="http://www.w3.org/2000/svg">      <defs>  <filter id="filter" x="-20%" y="-20%" width="140%" height="140%" filterUnits="objectBoundingBox" primitiveUnits="userSpaceOnUse" color-interpolation-filters="linearRGB">    <feMorphology operator="dilate" radius="20 20" in="SourceAlpha" result="morphology"/>    <feFlood flood-color="#ffffff" flood-opacity="1" result="flood"/>    <feComposite in="flood" in2="morphology" operator="in" result="composite"/>    <feMerge result="merge">          <feMergeNode in="composite" result="mergeNode"/>      <feMergeNode in="SourceGraphic" result="mergeNode1"/>      </feMerge>  </filter></defs>      <g id="notion-avatar" filter="url(#filter)">        <g id="notion-avatar-face" fill="#ffffff" transform="scale(-1,1) translate(-1080, 0)">      <!--?xml version="1.0" encoding="UTF-8"?-->    <!-- Generator: Sketch 63.1 (92452) - https://sketch.com -->    <title>Face/ 13</title>    <desc>Created with Sketch.</desc>    <g id="Face/-13" stroke="none" stroke-width="1" fill-rule="evenodd" stroke-linecap="round" stroke-linejoin="round">        <path d="M532,379 C664.54834,379 772,486.45166 772,619 C772,642.160109 793.234546,666.244677 787.453024,688.979248 C773.583554,743.517917 772,919 608,919 C448.628533,919 373.476049,816.010833 320.189513,718.584987 C317.498129,718.859681 314.765451,719 312,719 C267.81722,719 232,683.18278 232,639 C232,599.134956 261.158843,566.080325 299.312086,560.00055 C325.599297,455.979213 419.809919,379 532,379 Z M295.858895,624.545187 L304.141105,655.454813" id="Path" stroke="#000000" stroke-width="24"/>    </g>    </g><g id="notion-avatar-nose" transform="scale(-1,1) translate(-1080, 0)">      <!--?xml version="1.0" encoding="UTF-8"?-->    <title>Nose/ 9</title>    <g id="Nose/-9" stroke="none" stroke-width="1" fill="none" fill-rule="evenodd" stroke-linecap="round" stroke-linejoin="round">        <path d="M631,694.380659 C663.848549,704.811956 684.630284,697.576454 693.345205,672.674154 C706.417587,635.320703 637.033407,606.392531 660.161467,579" id="Path" stroke="#000000" stroke-width="16"/>    </g>    </g><g id="notion-avatar-mouth" transform="scale(-1,1) translate(-1080, 0)">      <!--?xml version="1.0" encoding="UTF-8"?-->    <title>Mouth/ 0</title>    <g id="Mouth/-0" stroke="none" stroke-width="1" fill="none" fill-rule="evenodd" stroke-linecap="round" stroke-linejoin="round">        <path d="M549,759 C576.33038,765.666667 599.663714,769 619,769 C638.336286,769 655.002953,765.666667 669,759" id="Path" stroke="#000000" stroke-width="16"/>    </g>    </g><g id="notion-avatar-eyes" transform="scale(-1,1) translate(-1080, 0)">      <!--?xml version="1.0" encoding="UTF-8"?-->    <title>Eyes/ 9</title>    <g id="Eyes/-9" stroke="none" stroke-width="1" fill="none" fill-rule="evenodd">        <path d="M570,507 C575.854822,507 581.122051,511.025253 584.779642,517.440484 L578,531 L589.369946,531.000208 C589.781247,533.557105 590,536.237678 590,539 C590,556.673112 581.045695,571 570,571 C558.954305,571 550,556.673112 550,539 C550,521.326888 558.954305,507 570,507 Z M708,507 C713.854822,507 719.122051,511.025253 722.779642,517.440484 L716,531 L727.369946,531.000208 C727.781247,533.557105 728,536.237678 728,539 C728,556.673112 719.045695,571 708,571 C696.954305,571 688,556.673112 688,539 C688,521.326888 696.954305,507 708,507 Z" id="Combined-Shape" fill="#000000"/>    </g>    </g><g id="notion-avatar-eyebrows" transform="scale(-1,1) translate(-1080, 0)">      <!--?xml version="1.0" encoding="UTF-8"?-->    <title>Eyebrows/ 8</title>    <g id="Eyebrows/-8" stroke="none" stroke-width="1" fill="none" fill-rule="evenodd" stroke-linecap="round" stroke-linejoin="round">        <g id="Group" transform="translate(530.000000, 490.000000)" stroke="#000000" stroke-width="16">            <path d="M64,10 C59.1947065,3.33333333 51.1947065,0 40,0 C28.8052935,0 15.4719602,3.33333333 0,10" id="Path"/>            <path d="M218,10 C213.194706,3.33333333 205.194706,0 194,0 C182.805294,0 169.47196,3.33333333 154,10" id="Path" transform="translate(186.000000, 5.000000) scale(-1, 1) translate(-186.000000, -5.000000) "/>        </g>    </g>    </g><g id="notion-avatar-glasses" transform="scale(-1,1) translate(-1080, 0)">      <!--?xml version="1.0" encoding="UTF-8"?-->    <title>Glasses/ 0</title>    <g id="Glasses/-0" stroke="none" stroke-width="1" fill="none" fill-rule="evenodd"/>    </g><g id="notion-avatar-hair" transform="scale(-1,1) translate(-1080, 0)">      <g id="Hairstyle/ 37"><path id="Path" fill-rule="evenodd" clip-rule="evenodd" d="M497.312 301.258C541.612 295.032 579.175 301.734 581.212 316.227L581.171 315.948C650.089 325.905 682.601 353.62 699 373C713.667 390.333 721 410 721 432L707.421 430.871C691.263 429.542 641.711 411.403 628.764 410.454C631.023 416.556 632.654 422.983 633.657 429.735L631.329 428.09C613.169 415.342 601.493 409.076 596.302 409.293L596.141 409.302C593.535 409.484 590.475 408.964 586.96 407.74L583.945 407.585C582.635 407.519 581.363 407.459 580.13 407.403L580.955 408.284C583.506 411.029 585.476 413.338 586.866 415.212C589.264 418.446 590.961 421.769 591.957 425.181C578.459 418.497 516 394 471 403C447.673 407.665 422.7 429.111 402.563 425.184C394.011 429.97 386.206 436.624 379.296 445.522C355.592 476.045 379 498.408 379 516L378.995 516.737C378.83 529.316 374.669 573.806 366.512 650.209L366 655L328.117 564.825H287.146C271.78 507.747 268.106 468.653 276.123 447.542C285.791 422.084 334.128 358.354 419.743 330.709C431.777 320.313 466.044 305.652 497.312 301.258Z" fill="black" stroke="black" stroke-width="12" stroke-linecap="round" stroke-linejoin="round"/></g>    </g><g id="notion-avatar-accessories" transform="scale(-1,1) translate(-1080, 0)">      <!--?xml version="1.0" encoding="UTF-8"?-->    <title>Accessories/ 0</title>    <g id="Accessories/-0" stroke="none" stroke-width="1" fill="none" fill-rule="evenodd"/>    </g><g id="notion-avatar-details" transform="scale(-1,1) translate(-1080, 0)">      <!--?xml version="1.0" encoding="UTF-8"?-->    <title>Details/ 0</title>    <g id="Details/-0" stroke="none" stroke-width="1" fill="none" fill-rule="evenodd"/>    </g><g id="notion-avatar-beard" transform="scale(-1,1) translate(-1080, 0)">      <!--?xml version="1.0" encoding="UTF-8"?-->    <title>Beard/ 2</title>    <g id="Beard/-2" stroke="none" stroke-width="1" fill="none" fill-rule="evenodd" stroke-linecap="round" stroke-linejoin="round">        <g id="Group" transform="translate(371.133645, 672.093579)" stroke="#000000" stroke-width="16">            <line x1="266.273341" y1="38.9064208" x2="266.273341" y2="62.9064208" id="Path" transform="translate(266.273341, 50.906421) rotate(5.000000) translate(-266.273341, -50.906421) "/>            <line x1="292.365079" y1="38.9064208" x2="292.365079" y2="62.9064208" id="Path" transform="translate(292.365079, 50.906421) scale(-1, 1) rotate(5.000000) translate(-292.365079, -50.906421) "/>            <line x1="239.557395" y1="40.9064208" x2="239.557395" y2="64.9064208" id="Path" transform="translate(239.557395, 52.906421) rotate(8.000000) translate(-239.557395, -52.906421) "/>            <line x1="319.081025" y1="41.9064208" x2="319.081025" y2="65.9064208" id="Path" transform="translate(319.081025, 53.906421) scale(-1, 1) rotate(8.000000) translate(-319.081025, -53.906421) "/>            <line x1="211.425951" y1="45.8073404" x2="210.217288" y2="63.4360151" id="Path" transform="translate(210.925951, 54.807340) rotate(16.000000) translate(-210.925951, -54.807340) "/>            <line x1="347.507476" y1="50.9064208" x2="347.507476" y2="70.9064208" id="Path" transform="translate(347.507476, 60.906421) scale(-1, 1) rotate(16.000000) translate(-347.507476, -60.906421) "/>            <line x1="181.844559" y1="48.1498621" x2="181.525756" y2="65.6629795" id="Path" transform="translate(182.025756, 56.662979) rotate(19.000000) translate(-182.025756, -56.662979) "/>            <line x1="151.490065" y1="56.7191175" x2="153.222458" y2="74.354276" id="Path" transform="translate(152.696414, 65.497522) rotate(22.000000) translate(-152.696414, -65.497522) "/>            <line x1="122.837706" y1="71.6204191" x2="126.780408" y2="96.0484158" id="Path" transform="translate(124.837706, 84.120419) rotate(22.000000) translate(-124.837706, -84.120419) "/>            <line x1="9.58948596" y1="-1.01442282" x2="5.14322409" y2="11.2015813" id="Path" transform="translate(7.500000, 5.000000) rotate(70.000000) translate(-7.500000, -5.000000) "/>            <line x1="13.9927886" y1="28.4091214" x2="12.0235844" y2="42.5908786" id="Path" transform="translate(13.004093, 35.351932) rotate(70.000000) translate(-13.004093, -35.351932) "/>            <line x1="20.9941812" y1="53.2957181" x2="18.8556925" y2="72.0949718" id="Path" transform="translate(19.994181, 62.795718) rotate(70.000000) translate(-19.994181, -62.795718) "/>            <line x1="28.866355" y1="80.9064208" x2="28.866355" y2="100.906421" id="Path" transform="translate(28.866355, 90.906421) rotate(70.000000) translate(-28.866355, -90.906421) "/>            <line x1="46.1997712" y1="108.632477" x2="50.981151" y2="128.886179" id="Path" transform="translate(48.481151, 118.386179) rotate(70.000000) translate(-48.481151, -118.386179) "/>            <line x1="66.8244792" y1="131.559139" x2="74.1692845" y2="150.617497" id="Path" transform="translate(70.669285, 140.617497) rotate(70.000000) translate(-70.669285, -140.617497) "/>            <line x1="86.8992094" y1="152.384454" x2="97.8335007" y2="167.428388" id="Path" transform="translate(92.333501, 159.428388) rotate(70.000000) translate(-92.333501, -159.428388) "/>            <line x1="114.53737" y1="164.254546" x2="129.592672" y2="175.956143" id="Path" transform="translate(122.092672, 169.956143) rotate(70.000000) translate(-122.092672, -169.956143) "/>            <line x1="146.238529" y1="168.970245" x2="160.954313" y2="178.099239" id="Path" transform="translate(153.454313, 173.099239) rotate(70.000000) translate(-153.454313, -173.099239) "/>            <line x1="174.944456" y1="168.32313" x2="191.788254" y2="177.489712" id="Path" transform="translate(183.288254, 172.489712) rotate(70.000000) translate(-183.288254, -172.489712) "/>            <line x1="204.9014" y1="169.192791" x2="223.711207" y2="173.460538" id="Path" transform="translate(214.271259, 171.040294) rotate(70.000000) translate(-214.271259, -171.040294) "/>            <line x1="234.714972" y1="164.529202" x2="250.464074" y2="165.163612" id="Path" transform="translate(242.733894, 164.396280) rotate(70.000000) translate(-242.733894, -164.396280) "/>            <line x1="260.929106" y1="154.234055" x2="276.136923" y2="153.384181" id="Path" transform="translate(268.630203, 154.095799) rotate(70.000000) translate(-268.630203, -154.095799) "/>            <line x1="286.892662" y1="141.146548" x2="301.056215" y2="139.152378" id="Path" transform="translate(294.049495, 140.363996) rotate(70.000000) translate(-294.049495, -140.363996) "/>        </g>    </g>    </g>      </g>      </svg>